<svg width="8px" height="14px" viewBox="0 0 8 14" version="1.1" xmlns="http://www.w3.org/2000/svg" xmlns:xlink="http://www.w3.org/1999/xlink">
    <!-- Generator: Sketch 56 (81588) - https://sketch.com -->
    <title>Path</title>
    <desc>Created with Sketch.</desc>
    <g id="Symbols" stroke="none" stroke-width="1" fill="none" fill-rule="evenodd">
        <g id="кубик-квартира-3-параметра--hover" transform="translate(-244.000000, -98.000000)" fill="#000000" fill-rule="nonzero">
            <g id="add-info" transform="translate(10.000000, 10.000000)">
                <g id="arrow" transform="translate(0.000000, 83.000000)">
                    <g id="right" transform="translate(225.000000, 0.000000)">
                        <path d="M16.1783659,5 C15.9761584,5 15.7739509,5.08515815 15.6222953,5.22141119 L9.25275936,11.4038929 C9.10110374,11.5571776 9,11.7785888 9,12 C9,12.2214112 9.08425312,12.4428224 9.25275936,12.5961071 L15.6222953,18.7785888 C15.7739509,18.9318735 15.9761584,19 16.1783659,19 C16.397424,19 16.6164821,18.9148418 16.7681377,18.7445255 C16.9197933,18.5912409 17.0040464,18.3868613 16.9871958,18.1654501 C16.9871958,17.9440389 16.9029427,17.7396594 16.7344365,17.5863747 L10.9883736,12 L16.7512871,6.4136253 C17.0714489,6.10705596 17.0882996,5.57907543 16.7681377,5.25547445 C16.6164821,5.08515815 16.4142746,5 16.1783659,5 C16.1783659,5 16.1783659,5 16.1783659,5 Z" id="Path" transform="translate(13.000000, 12.000000) rotate(180.000000) translate(-13.000000, -12.000000) "></path>
                    </g>
                </g>
            </g>
        </g>
    </g>
</svg>