<svg xmlns="http://www.w3.org/2000/svg" width="22" height="22" viewBox="0 0 22 22">
    <g fill="#000" fill-rule="nonzero">
        <path d="M14.813 14.053a.539.539 0 0 1-.76.76l-3.04-3.04-3.095 3.04c-.489.543-1.25-.217-.76-.76l3.094-3.04-3.094-3.095c-.49-.489.271-1.25.76-.76l3.095 3.094 3.04-3.094c.543-.49 1.303.271.76.76l-3.04 3.095 3.04 3.04z"/>
        <path d="M11 22C4.923 22 0 17.077 0 11S4.923 0 11 0s11 4.923 11 11-4.923 11-11 11zm0-1c5.528 0 10-4.472 10-10S16.528 1 11 1 1 5.472 1 11s4.472 10 10 10z"/>
    </g>
</svg>
