<svg xmlns="http://www.w3.org/2000/svg" width="12" height="12" viewBox="0 0 12 12">
    <path fill="#FFF" fill-rule="nonzero" d="M10.665 11.778V4.66A1.557 1.557 0 0 0 12 3.122c0-.783-.581-1.432-1.335-1.539V.223A.221.221 0 0 0 10.444 0a.221.221 0 0 0-.223.223v1.36a1.558 1.558 0 0 0-1.334 1.54c0 .782.581 1.43 1.334 1.537v7.118c0 .123.099.222.223.222a.22.22 0 0 0 .221-.222zM9.332 3.122a1.112 1.112 0 1 1 1.112 1.111 1.113 1.113 0 0 1-1.112-1.11zm-7.553 8.656V4.66a1.557 1.557 0 0 0 1.334-1.538c0-.783-.581-1.432-1.334-1.539V.223A.221.221 0 0 0 1.557 0a.221.221 0 0 0-.222.223v1.36A1.558 1.558 0 0 0 0 3.123c0 .782.581 1.43 1.335 1.537v7.118c0 .123.098.222.222.222a.22.22 0 0 0 .222-.222zM.445 3.122a1.112 1.112 0 1 1 1.112 1.111 1.113 1.113 0 0 1-1.112-1.11zm5.731 8.656v-4.14a1.604 1.604 0 0 0 1.426-1.592c0-.823-.625-1.503-1.426-1.591V.222a.222.222 0 1 0-.444 0V4.47a1.603 1.603 0 0 0-1.335 1.577c0 .792.579 1.449 1.335 1.577v4.155a.222.222 0 1 0 .444 0zM4.842 6.046a1.159 1.159 0 0 1 2.316 0 1.159 1.159 0 0 1-2.316 0z"/>
</svg>
